<svg width="32" height="32" viewBox="0 0 32 32" fill="none" xmlns="http://www.w3.org/2000/svg">
<g id="instagram">
<g id="instagram_2">
<path d="M25.8 8.3C25.8 9.4598 24.8598 10.4 23.7 10.4C22.5402 10.4 21.6 9.4598 21.6 8.3C21.6 7.1402 22.5402 6.2 23.7 6.2C24.8598 6.2 25.8 7.1402 25.8 8.3Z" fill="white"/>
<path fill-rule="evenodd" clip-rule="evenodd" d="M16 23C19.866 23 23 19.866 23 16C23 12.134 19.866 9 16 9C12.134 9 9 12.134 9 16C9 19.866 12.134 23 16 23ZM16 20.2C18.3196 20.2 20.2 18.3196 20.2 16C20.2 13.6804 18.3196 11.8 16 11.8C13.6804 11.8 11.8 13.6804 11.8 16C11.8 18.3196 13.6804 20.2 16 20.2Z" fill="white"/>
<path fill-rule="evenodd" clip-rule="evenodd" d="M2 15.44C2 10.7356 2 8.38334 2.91555 6.58648C3.72088 5.00592 5.00592 3.72088 6.58648 2.91555C8.38334 2 10.7356 2 15.44 2H16.56C21.2644 2 23.6167 2 25.4135 2.91555C26.9941 3.72088 28.2791 5.00592 29.0845 6.58648C30 8.38334 30 10.7356 30 15.44V16.56C30 21.2644 30 23.6167 29.0845 25.4135C28.2791 26.9941 26.9941 28.2791 25.4135 29.0845C23.6167 30 21.2644 30 16.56 30H15.44C10.7356 30 8.38334 30 6.58648 29.0845C5.00592 28.2791 3.72088 26.9941 2.91555 25.4135C2 23.6167 2 21.2644 2 16.56V15.44ZM15.44 4.8H16.56C18.9584 4.8 20.5888 4.80218 21.8491 4.90514C23.0767 5.00544 23.7044 5.18723 24.1423 5.41036C25.1961 5.94725 26.0527 6.80395 26.5896 7.85765C26.8128 8.29557 26.9946 8.92334 27.0949 10.1509C27.1978 11.4112 27.2 13.0416 27.2 15.44V16.56C27.2 18.9584 27.1978 20.5888 27.0949 21.8491C26.9946 23.0767 26.8128 23.7044 26.5896 24.1423C26.0527 25.1961 25.1961 26.0527 24.1423 26.5896C23.7044 26.8128 23.0767 26.9946 21.8491 27.0949C20.5888 27.1978 18.9584 27.2 16.56 27.2H15.44C13.0416 27.2 11.4112 27.1978 10.1509 27.0949C8.92334 26.9946 8.29557 26.8128 7.85765 26.5896C6.80395 26.0527 5.94725 25.1961 5.41036 24.1423C5.18723 23.7044 5.00544 23.0767 4.90514 21.8491C4.80218 20.5888 4.8 18.9584 4.8 16.56V15.44C4.8 13.0416 4.80218 11.4112 4.90514 10.1509C5.00544 8.92334 5.18723 8.29557 5.41036 7.85765C5.94725 6.80395 6.80395 5.94725 7.85765 5.41036C8.29557 5.18723 8.92334 5.00544 10.1509 4.90514C11.4112 4.80218 13.0416 4.8 15.44 4.8Z" fill="white"/>
</g>
</g>
</svg>
